<svg width="265" height="160" viewBox="0 0 265 160" fill="none" xmlns="http://www.w3.org/2000/svg">
<rect width="265" height="160" rx="10" fill="#FBFBFD"/>
<path d="M20 29C20 24.0294 24.0294 20 29 20C33.9706 20 38 24.0294 38 29C38 33.9706 33.9706 38 29 38C24.0294 38 20 33.9706 20 29Z" fill="white"/>
<path d="M29 36.8C24.6922 36.8 21.2 33.3078 21.2 29H18.8C18.8 34.6333 23.3667 39.2 29 39.2V36.8ZM36.8 29C36.8 33.3078 33.3078 36.8 29 36.8V39.2C34.6333 39.2 39.2 34.6333 39.2 29H36.8ZM29 21.2C33.3078 21.2 36.8 24.6922 36.8 29H39.2C39.2 23.3667 34.6333 18.8 29 18.8V21.2ZM29 18.8C23.3667 18.8 18.8 23.3667 18.8 29H21.2C21.2 24.6922 24.6922 21.2 29 21.2V18.8Z" fill="#D9D9EB"/>
<path fill-rule="evenodd" clip-rule="evenodd" d="M29 35C32.3137 35 35 32.3137 35 29C35 25.6863 32.3137 23 29 23C25.6863 23 23 25.6863 23 29C23 32.3137 25.6863 35 29 35Z" fill="#8962D9"/>
<path d="M49.287 34V24.9H56.463V34H55.436V25.836H50.314V34H49.287ZM58.868 36.08V27.279H59.869V28.631C60.545 27.6343 61.403 27.136 62.443 27.136C63.301 27.136 64.0507 27.4567 64.692 28.098C65.3333 28.7307 65.654 29.58 65.654 30.646C65.654 31.6947 65.3333 32.5397 64.692 33.181C64.0507 33.8223 63.301 34.143 62.443 34.143C61.3857 34.143 60.5277 33.6663 59.869 32.713V36.08H58.868ZM62.261 33.246C62.937 33.246 63.5003 33.012 63.951 32.544C64.4017 32.0673 64.627 31.4303 64.627 30.633C64.627 29.8617 64.3973 29.2377 63.938 28.761C63.4787 28.2757 62.9197 28.033 62.261 28.033C61.611 28.033 61.0433 28.28 60.558 28.774C60.0727 29.268 59.83 29.892 59.83 30.646C59.83 31.4 60.0727 32.024 60.558 32.518C61.0433 33.0033 61.611 33.246 62.261 33.246ZM73.0778 33.129C72.4018 33.8137 71.5655 34.156 70.5688 34.156C69.5721 34.156 68.7401 33.8137 68.0728 33.129C67.4141 32.4443 67.0848 31.6167 67.0848 30.646C67.0848 29.684 67.4185 28.8607 68.0858 28.176C68.7618 27.4827 69.5981 27.136 70.5948 27.136C71.5915 27.136 72.4235 27.4783 73.0908 28.163C73.7581 28.8477 74.0918 29.6753 74.0918 30.646C74.0918 31.608 73.7538 32.4357 73.0778 33.129ZM70.5948 33.259C71.3141 33.259 71.9035 33.0077 72.3628 32.505C72.8308 32.0023 73.0648 31.3827 73.0648 30.646C73.0648 29.918 72.8221 29.2983 72.3368 28.787C71.8601 28.2757 71.2708 28.02 70.5688 28.02C69.8495 28.02 69.2601 28.2757 68.8008 28.787C68.3415 29.2897 68.1118 29.9093 68.1118 30.646C68.1118 31.374 68.3501 31.9937 68.8268 32.505C69.3035 33.0077 69.8928 33.259 70.5948 33.259ZM74.9171 35.677V33.116H75.6451C76.2431 32.0153 76.5421 30.4597 76.5421 28.449V27.279H81.3261V33.116H82.3401L82.1841 35.677H81.3521V34H75.9181L75.7361 35.677H74.9171ZM76.7111 33.116H80.3251V28.163H77.5041V29.099C77.5041 30.789 77.2398 32.128 76.7111 33.116ZM85.7147 34.143C85.0301 34.143 84.4407 33.9567 83.9467 33.584C83.4527 33.2113 83.2057 32.6913 83.2057 32.024C83.2057 31.322 83.4657 30.7803 83.9857 30.399C84.5057 30.0177 85.2034 29.827 86.0787 29.827C86.7721 29.827 87.4567 29.9223 88.1327 30.113V29.905C88.1327 29.3157 87.9594 28.865 87.6127 28.553C87.2661 28.241 86.7764 28.085 86.1437 28.085C85.4851 28.085 84.8047 28.2453 84.1027 28.566L83.8037 27.747C84.6357 27.3657 85.4504 27.175 86.2477 27.175C87.2011 27.175 87.9247 27.422 88.4187 27.916C88.8867 28.384 89.1207 29.0427 89.1207 29.892V34H88.1327V32.999C87.5347 33.7617 86.7287 34.143 85.7147 34.143ZM85.9097 33.337C86.5337 33.337 87.0624 33.168 87.4957 32.83C87.9291 32.492 88.1457 32.0587 88.1457 31.53V30.906C87.4871 30.7153 86.8327 30.62 86.1827 30.62C85.5674 30.62 85.0864 30.7457 84.7397 30.997C84.3931 31.2397 84.2197 31.5733 84.2197 31.998C84.2197 32.4053 84.3801 32.7303 84.7007 32.973C85.0301 33.2157 85.4331 33.337 85.9097 33.337ZM97.013 34.156C96.0944 34.156 95.3404 33.8613 94.751 33.272C94.1617 32.6827 93.8237 31.9417 93.737 31.049H92.242V34H91.241V27.279H92.242V30.204H93.737C93.841 29.3287 94.1877 28.6007 94.777 28.02C95.375 27.4307 96.129 27.136 97.039 27.136C98.027 27.136 98.8244 27.474 99.431 28.15C100.046 28.826 100.354 29.658 100.354 30.646C100.354 31.6167 100.046 32.4443 99.431 33.129C98.8157 33.8137 98.0097 34.156 97.013 34.156ZM97.039 33.259C97.741 33.259 98.2957 33.012 98.703 32.518C99.1104 32.0153 99.314 31.3913 99.314 30.646C99.314 29.9007 99.1017 29.281 98.677 28.787C98.2524 28.2843 97.6977 28.033 97.013 28.033C96.3197 28.033 95.7694 28.2843 95.362 28.787C94.9547 29.281 94.751 29.9007 94.751 30.646C94.751 31.3913 94.959 32.0153 95.375 32.518C95.7997 33.012 96.3544 33.259 97.039 33.259ZM111.753 35.677V34H102.159V27.279H103.16V33.116H106.436V27.279H107.437V33.116H110.713V27.279H111.727V33.116H112.741L112.585 35.677H111.753ZM114.118 34V27.279H115.119V32.596L119.11 27.279H120.085V34H119.084V28.683L115.08 34H114.118ZM122.319 34V27.279H123.32V32.596L127.311 27.279H128.286V34H127.285V28.683L123.281 34H122.319ZM126.479 25.875C126.15 26.1697 125.747 26.317 125.27 26.317C124.794 26.317 124.386 26.1697 124.048 25.875C123.719 25.5803 123.515 25.199 123.437 24.731L124.126 24.588C124.3 25.1947 124.681 25.498 125.27 25.498C125.86 25.498 126.241 25.1947 126.414 24.588L127.103 24.731C127.025 25.199 126.817 25.5803 126.479 25.875ZM137.447 34.156C136.476 34.156 135.657 33.8137 134.99 33.129C134.331 32.4357 134.002 31.608 134.002 30.646C134.002 29.684 134.331 28.8607 134.99 28.176C135.657 27.4827 136.476 27.136 137.447 27.136C138.487 27.136 139.384 27.5347 140.138 28.332L139.501 29.008C138.877 28.3493 138.188 28.02 137.434 28.02C136.758 28.02 136.186 28.2757 135.718 28.787C135.258 29.2897 135.029 29.9093 135.029 30.646C135.029 31.374 135.263 31.9937 135.731 32.505C136.207 33.0077 136.797 33.259 137.499 33.259C138.218 33.259 138.894 32.921 139.527 32.245L140.19 32.856C139.41 33.7227 138.495 34.156 137.447 34.156ZM143.847 34.143C143.162 34.143 142.573 33.9567 142.079 33.584C141.585 33.2113 141.338 32.6913 141.338 32.024C141.338 31.322 141.598 30.7803 142.118 30.399C142.638 30.0177 143.335 29.827 144.211 29.827C144.904 29.827 145.589 29.9223 146.265 30.113V29.905C146.265 29.3157 146.091 28.865 145.745 28.553C145.398 28.241 144.908 28.085 144.276 28.085C143.617 28.085 142.937 28.2453 142.235 28.566L141.936 27.747C142.768 27.3657 143.582 27.175 144.38 27.175C145.333 27.175 146.057 27.422 146.551 27.916C147.019 28.384 147.253 29.0427 147.253 29.892V34H146.265V32.999C145.667 33.7617 144.861 34.143 143.847 34.143ZM144.042 33.337C144.666 33.337 145.194 33.168 145.628 32.83C146.061 32.492 146.278 32.0587 146.278 31.53V30.906C145.619 30.7153 144.965 30.62 144.315 30.62C143.699 30.62 143.218 30.7457 142.872 30.997C142.525 31.2397 142.352 31.5733 142.352 31.998C142.352 32.4053 142.512 32.7303 142.833 32.973C143.162 33.2157 143.565 33.337 144.042 33.337ZM149.373 34V27.279H150.374V32.596L154.365 27.279H155.34V34H154.339V28.683L150.335 34H149.373ZM153.533 25.875C153.204 26.1697 152.801 26.317 152.324 26.317C151.847 26.317 151.44 26.1697 151.102 25.875C150.773 25.5803 150.569 25.199 150.491 24.731L151.18 24.588C151.353 25.1947 151.735 25.498 152.324 25.498C152.913 25.498 153.295 25.1947 153.468 24.588L154.157 24.731C154.079 25.199 153.871 25.5803 153.533 25.875ZM159.199 34V28.163H156.794V27.279H162.618V28.163H160.213V34H159.199Z" fill="#1C1C1C"/>
<rect x="20.5" y="50.5" width="129" height="89" rx="4.5" stroke="#D9DDEE"/>
<path d="M28 67.5H138" stroke="#D9DDEE" stroke-linecap="round"/>
<rect x="28.5" y="54.5" width="9" height="9" rx="0.5" stroke="#D9DDEE"/>
<rect x="42" y="63" width="15" height="1" fill="#D9DDEE"/>
<rect x="35" y="97" width="39" height="1" fill="#D9DDEE"/>
<rect x="28" y="131" width="39" height="1" fill="#D9DDEE"/>
<rect x="28" y="124" width="23" height="3" fill="#D9DDEE"/>
<rect x="35" y="90" width="23" height="3" fill="#D9DDEE"/>
<rect x="35" y="101" width="23" height="1" fill="#D9DDEE"/>
<rect x="28" y="135" width="23" height="1" fill="#D9DDEE"/>
<rect x="28.5" y="76.5" width="109" height="40" rx="0.5" stroke="#D9DDEE"/>
<rect x="88.5" y="124.5" width="49" height="15" rx="0.5" stroke="#D9DDEE"/>
<path d="M212.5 101L212.5 131C212.5 132.657 211.157 134 209.5 134L178 134" stroke="#D9DDEE" stroke-linecap="round"/>
<rect x="207.5" y="56.5" width="44" height="49" rx="2.5" stroke="#D9DDEE"/>
<rect x="142" y="87" width="65" height="42" rx="3" fill="#FFC619"/>
<path fill-rule="evenodd" clip-rule="evenodd" d="M183.21 103.899V112.05C183.21 115.07 181.32 117.2 178.3 117.2H169.65C166.63 117.2 164.75 115.07 164.75 112.05V103.899C164.75 100.879 166.64 98.7502 169.65 98.7502H178.3C181.32 98.7502 183.21 100.879 183.21 103.899Z" stroke="white" stroke-width="1.5" stroke-linecap="round" stroke-linejoin="round"/>
<path opacity="0.4" d="M167.281 112.431L168.809 110.818C169.34 110.255 170.225 110.228 170.789 110.758C170.806 110.775 171.726 111.71 171.726 111.71C172.281 112.275 173.188 112.284 173.753 111.73C173.79 111.694 176.087 108.908 176.087 108.908C176.679 108.189 177.742 108.086 178.462 108.679C178.51 108.719 180.68 110.946 180.68 110.946" stroke="white" stroke-width="1.5" stroke-linecap="round" stroke-linejoin="round"/>
<path opacity="0.4" fill-rule="evenodd" clip-rule="evenodd" d="M172.313 105.133C172.313 106.102 171.528 106.887 170.559 106.887C169.59 106.887 168.805 106.102 168.805 105.133C168.805 104.164 169.59 103.379 170.559 103.379C171.528 103.38 172.313 104.164 172.313 105.133Z" stroke="white" stroke-width="1.5" stroke-linecap="round" stroke-linejoin="round"/>
<rect x="195" y="62" width="50" height="46" rx="3" fill="#F23061"/>
<path fill-rule="evenodd" clip-rule="evenodd" d="M224.513 94.4999H216.166C213.099 94.4999 210.747 93.3924 211.415 88.9347L212.193 82.8935C212.605 80.6693 214.024 79.818 215.269 79.818H225.447C226.71 79.818 228.047 80.7333 228.523 82.8935L229.301 88.9347C229.868 92.8889 227.58 94.4999 224.513 94.4999Z" stroke="white" stroke-width="1.5" stroke-linecap="round" stroke-linejoin="round"/>
<path opacity="0.4" d="M224.651 79.5984C224.651 77.2123 222.717 75.278 220.331 75.278V75.278C219.182 75.2731 218.078 75.7262 217.264 76.5369C216.45 77.3477 215.992 78.4493 215.992 79.5984V79.5984" stroke="white" stroke-width="1.5" stroke-linecap="round" stroke-linejoin="round"/>
<path d="M223.297 84.1018H223.251" stroke="white" stroke-width="1.5" stroke-linecap="round" stroke-linejoin="round"/>
<path d="M217.465 84.1018H217.419" stroke="white" stroke-width="1.5" stroke-linecap="round" stroke-linejoin="round"/>
<rect width="265" height="160" rx="10" fill="#F6F7FB"/>
<path d="M20 29C20 24.0294 24.0294 20 29 20C33.9706 20 38 24.0294 38 29C38 33.9706 33.9706 38 29 38C24.0294 38 20 33.9706 20 29Z" fill="white"/>
<path d="M29 36.8C24.6922 36.8 21.2 33.3078 21.2 29H18.8C18.8 34.6333 23.3667 39.2 29 39.2V36.8ZM36.8 29C36.8 33.3078 33.3078 36.8 29 36.8V39.2C34.6333 39.2 39.2 34.6333 39.2 29H36.8ZM29 21.2C33.3078 21.2 36.8 24.6922 36.8 29H39.2C39.2 23.3667 34.6333 18.8 29 18.8V21.2ZM29 18.8C23.3667 18.8 18.8 23.3667 18.8 29H21.2C21.2 24.6922 24.6922 21.2 29 21.2V18.8Z" fill="#D9D9EB"/>
<path d="M53.447 32.156C52.1383 32.156 51.0507 31.7053 50.184 30.804C49.3173 29.894 48.884 28.776 48.884 27.45C48.884 26.1413 49.3217 25.032 50.197 24.122C51.0723 23.2033 52.1687 22.744 53.486 22.744C54.2487 22.744 54.8987 22.8697 55.436 23.121C55.9733 23.3637 56.4977 23.7277 57.009 24.213L56.333 24.941C55.4577 24.109 54.5043 23.693 53.473 23.693C52.4677 23.693 51.627 24.0527 50.951 24.772C50.2837 25.4913 49.95 26.384 49.95 27.45C49.95 28.5073 50.288 29.4 50.964 30.128C51.64 30.8473 52.4763 31.207 53.473 31.207C54.0623 31.207 54.5823 31.0987 55.033 30.882C55.4837 30.6653 55.943 30.336 56.411 29.894L57.087 30.609C56.5757 31.1203 56.0383 31.506 55.475 31.766C54.9117 32.026 54.2357 32.156 53.447 32.156ZM60.7177 32.143C60.033 32.143 59.4437 31.9567 58.9497 31.584C58.4557 31.2113 58.2087 30.6913 58.2087 30.024C58.2087 29.322 58.4687 28.7803 58.9887 28.399C59.5087 28.0177 60.2063 27.827 61.0817 27.827C61.775 27.827 62.4597 27.9223 63.1357 28.113V27.905C63.1357 27.3157 62.9623 26.865 62.6157 26.553C62.269 26.241 61.7793 26.085 61.1467 26.085C60.488 26.085 59.8077 26.2453 59.1057 26.566L58.8067 25.747C59.6387 25.3657 60.4533 25.175 61.2507 25.175C62.204 25.175 62.9277 25.422 63.4217 25.916C63.8897 26.384 64.1237 27.0427 64.1237 27.892V32H63.1357V30.999C62.5377 31.7617 61.7317 32.143 60.7177 32.143ZM60.9127 31.337C61.5367 31.337 62.0653 31.168 62.4987 30.83C62.932 30.492 63.1487 30.0587 63.1487 29.53V28.906C62.49 28.7153 61.8357 28.62 61.1857 28.62C60.5703 28.62 60.0893 28.7457 59.7427 28.997C59.396 29.2397 59.2227 29.5733 59.2227 29.998C59.2227 30.4053 59.383 30.7303 59.7037 30.973C60.033 31.2157 60.436 31.337 60.9127 31.337ZM66.244 32V25.279H67.245V30.596L71.236 25.279H72.211V32H71.21V26.683L67.206 32H66.244ZM70.404 23.875C70.0746 24.1697 69.6716 24.317 69.195 24.317C68.7183 24.317 68.311 24.1697 67.973 23.875C67.6436 23.5803 67.44 23.199 67.362 22.731L68.051 22.588C68.2243 23.1947 68.6056 23.498 69.195 23.498C69.7843 23.498 70.1656 23.1947 70.339 22.588L71.028 22.731C70.95 23.199 70.742 23.5803 70.404 23.875ZM76.0701 32V26.163H73.6651V25.279H79.4891V26.163H77.0841V32H76.0701ZM80.6721 28.62V27.567H84.2861V28.62H80.6721ZM86.2518 32V25.279H89.5018C90.1691 25.279 90.7021 25.4307 91.1008 25.734C91.4995 26.0373 91.6988 26.4447 91.6988 26.956C91.6988 27.6753 91.3261 28.191 90.5808 28.503C91.5688 28.7717 92.0628 29.3263 92.0628 30.167C92.0628 30.7303 91.8418 31.1767 91.3998 31.506C90.9578 31.8353 90.3641 32 89.6188 32H86.2518ZM87.2528 31.142H89.4888C89.9655 31.142 90.3425 31.0423 90.6198 30.843C90.8971 30.6437 91.0358 30.3663 91.0358 30.011C91.0358 29.6817 90.8885 29.426 90.5938 29.244C90.3078 29.062 89.8961 28.971 89.3588 28.971H87.2528V31.142ZM87.2528 28.165H89.3198C89.7358 28.165 90.0651 28.074 90.3078 27.892C90.5591 27.7013 90.6848 27.4327 90.6848 27.086C90.6848 26.8 90.5678 26.5703 90.3338 26.397C90.0998 26.2237 89.7705 26.137 89.3458 26.137H87.2528V28.165ZM93.869 32V25.279H94.87V30.596L98.861 25.279H99.836V32H98.835V26.683L94.831 32H93.869ZM103.695 32V26.163H101.29V25.279H107.114V26.163H104.709V32H103.695ZM108.57 34.08V25.279H109.571V26.631C110.247 25.6343 111.105 25.136 112.145 25.136C113.003 25.136 113.753 25.4567 114.394 26.098C115.035 26.7307 115.356 27.58 115.356 28.646C115.356 29.6947 115.035 30.5397 114.394 31.181C113.753 31.8223 113.003 32.143 112.145 32.143C111.088 32.143 110.23 31.6663 109.571 30.713V34.08H108.57ZM111.963 31.246C112.639 31.246 113.202 31.012 113.653 30.544C114.104 30.0673 114.329 29.4303 114.329 28.633C114.329 27.8617 114.099 27.2377 113.64 26.761C113.181 26.2757 112.622 26.033 111.963 26.033C111.313 26.033 110.745 26.28 110.26 26.774C109.775 27.268 109.532 27.892 109.532 28.646C109.532 29.4 109.775 30.024 110.26 30.518C110.745 31.0033 111.313 31.246 111.963 31.246ZM117.203 32V25.279H118.204V30.596L122.195 25.279H123.17V32H122.169V26.683L118.165 32H117.203ZM125.404 32V25.279H126.405V28.178H130.279V25.279H131.28V32H130.279V29.062H126.405V32H125.404ZM135.518 32.143C134.834 32.143 134.244 31.9567 133.75 31.584C133.256 31.2113 133.009 30.6913 133.009 30.024C133.009 29.322 133.269 28.7803 133.789 28.399C134.309 28.0177 135.007 27.827 135.882 27.827C136.576 27.827 137.26 27.9223 137.936 28.113V27.905C137.936 27.3157 137.763 26.865 137.416 26.553C137.07 26.241 136.58 26.085 135.947 26.085C135.289 26.085 134.608 26.2453 133.906 26.566L133.607 25.747C134.439 25.3657 135.254 25.175 136.051 25.175C137.005 25.175 137.728 25.422 138.222 25.916C138.69 26.384 138.924 27.0427 138.924 27.892V32H137.936V30.999C137.338 31.7617 136.532 32.143 135.518 32.143ZM135.713 31.337C136.337 31.337 136.866 31.168 137.299 30.83C137.733 30.492 137.949 30.0587 137.949 29.53V28.906C137.291 28.7153 136.636 28.62 135.986 28.62C135.371 28.62 134.89 28.7457 134.543 28.997C134.197 29.2397 134.023 29.5733 134.023 29.998C134.023 30.4053 134.184 30.7303 134.504 30.973C134.834 31.2157 135.237 31.337 135.713 31.337Z" fill="#1C1C1C"/>
<rect x="20.5" y="48.5" width="129" height="89" rx="4.5" stroke="#D9DDEE"/>
<path d="M28 65.5H138" stroke="#D9DDEE" stroke-linecap="round"/>
<rect x="28.5" y="52.5" width="9" height="9" rx="0.5" stroke="#D9DDEE"/>
<rect x="58.5" y="74.5" width="24" height="25" rx="0.5" stroke="#D9DDEE"/>
<rect x="58.5" y="103.5" width="24" height="25" rx="0.5" stroke="#D9DDEE"/>
<rect x="88.5" y="74.5" width="24" height="25" rx="0.5" stroke="#D9DDEE"/>
<rect x="88.5" y="103.5" width="24" height="25" rx="0.5" stroke="#D9DDEE"/>
<rect x="118.5" y="74.5" width="24" height="25" rx="0.5" stroke="#D9DDEE"/>
<rect x="118.5" y="103.5" width="24" height="25" rx="0.5" stroke="#D9DDEE"/>
<rect x="42" y="61" width="15" height="1" fill="#D9DDEE"/>
<rect x="28.5" y="74.5" width="24" height="25" rx="0.5" stroke="#D9DDEE"/>
<rect x="28.5" y="103.5" width="24" height="25" rx="0.5" stroke="#D9DDEE"/>
<path d="M203.5 106.5L203.5 125C203.5 126.657 202.157 128 200.5 128L182.5 128" stroke="#D9DDEE" stroke-linecap="round"/>
<rect x="183.5" y="38.5" width="61" height="44" rx="2.5" stroke="#D9DDEE"/>
<rect x="134" y="84" width="65" height="39" rx="4" fill="#6262D9"/>
<path d="M158.794 99.0557C158.794 97.8067 159.807 96.7937 161.055 96.7937H162.084C162.68 96.7937 163.253 96.5577 163.677 96.1367L164.396 95.4167C165.277 94.5317 166.709 94.5277 167.594 95.4087L167.603 95.4167L168.323 96.1367C168.746 96.5577 169.319 96.7937 169.916 96.7937H170.944C172.193 96.7937 173.206 97.8067 173.206 99.0557V100.083C173.206 100.681 173.442 101.253 173.863 101.677L174.583 102.397C175.468 103.278 175.473 104.709 174.592 105.595L174.583 105.604L173.863 106.324C173.442 106.746 173.206 107.32 173.206 107.916V108.945C173.206 110.194 172.193 111.206 170.944 111.206H169.916C169.319 111.206 168.746 111.443 168.323 111.864L167.603 112.583C166.723 113.469 165.291 113.473 164.405 112.592C164.402 112.589 164.399 112.586 164.396 112.583L163.677 111.864C163.253 111.443 162.68 111.206 162.084 111.206H161.055C159.807 111.206 158.794 110.194 158.794 108.945V107.916C158.794 107.32 158.557 106.746 158.136 106.324L157.417 105.604C156.531 104.723 156.527 103.291 157.408 102.406L157.417 102.397L158.136 101.677C158.557 101.253 158.794 100.681 158.794 100.083V99.0557" stroke="white" stroke-width="1.5" stroke-linecap="round" stroke-linejoin="round"/>
<path opacity="0.4" d="M163.43 106.569L168.57 101.429" stroke="white" stroke-width="1.5" stroke-linecap="round" stroke-linejoin="round"/>
<path opacity="0.4" d="M168.566 107.322C168.366 107.322 168.176 107.242 168.036 107.102C167.966 107.032 167.916 106.942 167.876 106.852C167.836 106.762 167.816 106.673 167.816 106.572C167.816 106.472 167.836 106.372 167.876 106.282C167.916 106.192 167.966 106.112 168.036 106.042C168.316 105.762 168.816 105.762 169.096 106.042C169.166 106.112 169.226 106.192 169.266 106.282C169.296 106.372 169.316 106.472 169.316 106.572C169.316 106.673 169.296 106.762 169.266 106.852C169.226 106.942 169.166 107.032 169.096 107.102C168.956 107.242 168.766 107.322 168.566 107.322Z" fill="white"/>
<path opacity="0.4" d="M163.426 102.183C163.326 102.183 163.236 102.162 163.146 102.122C163.056 102.082 162.966 102.033 162.896 101.963C162.826 101.883 162.776 101.803 162.736 101.713C162.696 101.622 162.676 101.533 162.676 101.433C162.676 101.332 162.696 101.233 162.736 101.143C162.776 101.053 162.826 100.963 162.896 100.903C163.186 100.622 163.676 100.622 163.956 100.903C164.096 101.042 164.176 101.233 164.176 101.433C164.176 101.533 164.166 101.622 164.126 101.713C164.086 101.803 164.026 101.883 163.956 101.963C163.886 102.033 163.806 102.082 163.716 102.122C163.626 102.162 163.526 102.183 163.426 102.183Z" fill="white"/>
<rect x="176" y="45" width="61" height="47" rx="4" fill="#57C3D9"/>
<path opacity="0.4" fill-rule="evenodd" clip-rule="evenodd" d="M201.422 75.8203C201.844 75.8203 202.187 76.1633 202.187 76.5853C202.187 77.0073 201.844 77.3493 201.422 77.3493C201 77.3493 200.658 77.0073 200.658 76.5853C200.658 76.1633 201 75.8203 201.422 75.8203Z" stroke="white" stroke-width="1.5" stroke-linecap="round" stroke-linejoin="round"/>
<path opacity="0.4" fill-rule="evenodd" clip-rule="evenodd" d="M212.675 75.8203C213.097 75.8203 213.44 76.1633 213.44 76.5853C213.44 77.0073 213.097 77.3493 212.675 77.3493C212.253 77.3493 211.91 77.0073 211.91 76.5853C211.91 76.1633 212.253 75.8203 212.675 75.8203Z" stroke="white" stroke-width="1.5" stroke-linecap="round" stroke-linejoin="round"/>
<path d="M196.75 59.25L198.83 59.61L199.793 71.083C199.871 72.018 200.652 72.736 201.59 72.736H212.502C213.398 72.736 214.158 72.078 214.287 71.19L215.236 64.632C215.353 63.823 214.726 63.099 213.909 63.099H199.164" stroke="white" stroke-width="1.5" stroke-linecap="round" stroke-linejoin="round"/>
<path opacity="0.4" d="M208.125 66.795H210.898" stroke="white" stroke-width="1.5" stroke-linecap="round" stroke-linejoin="round"/>
<rect width="265" height="160" rx="10" fill="#F6F7FB"/>
<path d="M20 29C20 24.0294 24.0294 20 29 20C33.9706 20 38 24.0294 38 29C38 33.9706 33.9706 38 29 38C24.0294 38 20 33.9706 20 29Z" fill="white"/>
<path d="M29 36.8C24.6922 36.8 21.2 33.3078 21.2 29H18.8C18.8 34.6333 23.3667 39.2 29 39.2V36.8ZM36.8 29C36.8 33.3078 33.3078 36.8 29 36.8V39.2C34.6333 39.2 39.2 34.6333 39.2 29H36.8ZM29 21.2C33.3078 21.2 36.8 24.6922 36.8 29H39.2C39.2 23.3667 34.6333 18.8 29 18.8V21.2ZM29 18.8C23.3667 18.8 18.8 23.3667 18.8 29H21.2C21.2 24.6922 24.6922 21.2 29 21.2V18.8Z" fill="#D9D9EB"/>
<path d="M49.287 34V24.9H50.314V30.334L55.54 24.9H56.866L52.966 28.878L57.035 34H55.748L52.251 29.593L50.314 31.556V34H49.287ZM64.0388 33.129C63.3628 33.8137 62.5264 34.156 61.5298 34.156C60.5331 34.156 59.7011 33.8137 59.0338 33.129C58.3751 32.4443 58.0458 31.6167 58.0458 30.646C58.0458 29.684 58.3794 28.8607 59.0468 28.176C59.7228 27.4827 60.5591 27.136 61.5558 27.136C62.5524 27.136 63.3844 27.4783 64.0518 28.163C64.7191 28.8477 65.0528 29.6753 65.0528 30.646C65.0528 31.608 64.7148 32.4357 64.0388 33.129ZM61.5558 33.259C62.2751 33.259 62.8644 33.0077 63.3238 32.505C63.7918 32.0023 64.0257 31.3827 64.0257 30.646C64.0257 29.918 63.7831 29.2983 63.2978 28.787C62.8211 28.2757 62.2318 28.02 61.5298 28.02C60.8104 28.02 60.2211 28.2757 59.7618 28.787C59.3024 29.2897 59.0728 29.9093 59.0728 30.646C59.0728 31.374 59.3111 31.9937 59.7878 32.505C60.2644 33.0077 60.8538 33.259 61.5558 33.259ZM66.866 36.08V27.279H67.867V28.631C68.543 27.6343 69.401 27.136 70.441 27.136C71.299 27.136 72.0487 27.4567 72.69 28.098C73.3314 28.7307 73.652 29.58 73.652 30.646C73.652 31.6947 73.3314 32.5397 72.69 33.181C72.0487 33.8223 71.299 34.143 70.441 34.143C69.3837 34.143 68.5257 33.6663 67.867 32.713V36.08H66.866ZM70.259 33.246C70.935 33.246 71.4984 33.012 71.949 32.544C72.3997 32.0673 72.625 31.4303 72.625 30.633C72.625 29.8617 72.3954 29.2377 71.936 28.761C71.4767 28.2757 70.9177 28.033 70.259 28.033C69.609 28.033 69.0414 28.28 68.556 28.774C68.0707 29.268 67.828 29.892 67.828 30.646C67.828 31.4 68.0707 32.024 68.556 32.518C69.0414 33.0033 69.609 33.246 70.259 33.246ZM75.4989 34V27.279H81.3229V34H80.3219V28.163H76.4999V34H75.4989ZM89.1374 33.129C88.4614 33.8137 87.625 34.156 86.6284 34.156C85.6317 34.156 84.7997 33.8137 84.1324 33.129C83.4737 32.4443 83.1444 31.6167 83.1444 30.646C83.1444 29.684 83.478 28.8607 84.1454 28.176C84.8214 27.4827 85.6577 27.136 86.6544 27.136C87.651 27.136 88.483 27.4783 89.1504 28.163C89.8177 28.8477 90.1514 29.6753 90.1514 30.646C90.1514 31.608 89.8134 32.4357 89.1374 33.129ZM86.6544 33.259C87.3737 33.259 87.963 33.0077 88.4224 32.505C88.8904 32.0023 89.1244 31.3827 89.1244 30.646C89.1244 29.918 88.8817 29.2983 88.3964 28.787C87.9197 28.2757 87.3304 28.02 86.6284 28.02C85.909 28.02 85.3197 28.2757 84.8604 28.787C84.401 29.2897 84.1714 29.9093 84.1714 30.646C84.1714 31.374 84.4097 31.9937 84.8864 32.505C85.363 33.0077 85.9524 33.259 86.6544 33.259ZM91.9647 36.08V27.279H92.9657V28.631C93.6417 27.6343 94.4997 27.136 95.5397 27.136C96.3977 27.136 97.1473 27.4567 97.7887 28.098C98.43 28.7307 98.7507 29.58 98.7507 30.646C98.7507 31.6947 98.43 32.5397 97.7887 33.181C97.1473 33.8223 96.3977 34.143 95.5397 34.143C94.4823 34.143 93.6243 33.6663 92.9657 32.713V36.08H91.9647ZM95.3577 33.246C96.0337 33.246 96.597 33.012 97.0477 32.544C97.4983 32.0673 97.7237 31.4303 97.7237 30.633C97.7237 29.8617 97.494 29.2377 97.0347 28.761C96.5753 28.2757 96.0163 28.033 95.3577 28.033C94.7077 28.033 94.14 28.28 93.6547 28.774C93.1693 29.268 92.9267 29.892 92.9267 30.646C92.9267 31.4 93.1693 32.024 93.6547 32.518C94.14 33.0033 94.7077 33.246 95.3577 33.246ZM102.599 34.143C101.915 34.143 101.325 33.9567 100.831 33.584C100.337 33.2113 100.09 32.6913 100.09 32.024C100.09 31.322 100.35 30.7803 100.87 30.399C101.39 30.0177 102.088 29.827 102.963 29.827C103.657 29.827 104.341 29.9223 105.017 30.113V29.905C105.017 29.3157 104.844 28.865 104.497 28.553C104.151 28.241 103.661 28.085 103.028 28.085C102.37 28.085 101.689 28.2453 100.987 28.566L100.688 27.747C101.52 27.3657 102.335 27.175 103.132 27.175C104.086 27.175 104.809 27.422 105.303 27.916C105.771 28.384 106.005 29.0427 106.005 29.892V34H105.017V32.999C104.419 33.7617 103.613 34.143 102.599 34.143ZM102.794 33.337C103.418 33.337 103.947 33.168 104.38 32.83C104.814 32.492 105.03 32.0587 105.03 31.53V30.906C104.372 30.7153 103.717 30.62 103.067 30.62C102.452 30.62 101.971 30.7457 101.624 30.997C101.278 31.2397 101.104 31.5733 101.104 31.998C101.104 32.4053 101.265 32.7303 101.585 32.973C101.915 33.2157 102.318 33.337 102.794 33.337ZM109.751 34V28.163H107.346V27.279H113.17V28.163H110.765V34H109.751ZM114.626 34V27.279H115.627V32.596L119.618 27.279H120.593V34H119.592V28.683L115.588 34H114.626ZM122.827 34V27.279H126.077C126.744 27.279 127.277 27.4307 127.676 27.734C128.075 28.0373 128.274 28.4447 128.274 28.956C128.274 29.6753 127.901 30.191 127.156 30.503C128.144 30.7717 128.638 31.3263 128.638 32.167C128.638 32.7303 128.417 33.1767 127.975 33.506C127.533 33.8353 126.939 34 126.194 34H122.827ZM123.828 33.142H126.064C126.541 33.142 126.918 33.0423 127.195 32.843C127.472 32.6437 127.611 32.3663 127.611 32.011C127.611 31.6817 127.464 31.426 127.169 31.244C126.883 31.062 126.471 30.971 125.934 30.971H123.828V33.142ZM123.828 30.165H125.895C126.311 30.165 126.64 30.074 126.883 29.892C127.134 29.7013 127.26 29.4327 127.26 29.086C127.26 28.8 127.143 28.5703 126.909 28.397C126.675 28.2237 126.346 28.137 125.921 28.137H123.828V30.165ZM130.444 34V27.279H131.445V30.178H135.319V27.279H136.32V34H135.319V31.062H131.445V34H130.444ZM138.556 34V27.279H139.557V29.801H141.351C142.131 29.801 142.768 29.97 143.262 30.308C143.756 30.6373 144.003 31.14 144.003 31.816C144.003 32.4833 143.774 33.0163 143.314 33.415C142.855 33.805 142.24 34 141.468 34H138.556ZM139.557 33.116H141.377C141.889 33.116 142.283 33.0077 142.56 32.791C142.846 32.5743 142.989 32.258 142.989 31.842C142.989 31.4607 142.842 31.1703 142.547 30.971C142.261 30.763 141.858 30.659 141.338 30.659H139.557V33.116ZM145.212 34V27.279H146.213V34H145.212ZM148.446 34V27.279H149.447V32.596L153.438 27.279H154.413V34H153.412V28.683L149.408 34H148.446ZM152.606 25.875C152.277 26.1697 151.874 26.317 151.397 26.317C150.92 26.317 150.513 26.1697 150.175 25.875C149.846 25.5803 149.642 25.199 149.564 24.731L150.253 24.588C150.426 25.1947 150.808 25.498 151.397 25.498C151.986 25.498 152.368 25.1947 152.541 24.588L153.23 24.731C153.152 25.199 152.944 25.5803 152.606 25.875ZM163.574 34.156C162.603 34.156 161.784 33.8137 161.117 33.129C160.458 32.4357 160.129 31.608 160.129 30.646C160.129 29.684 160.458 28.8607 161.117 28.176C161.784 27.4827 162.603 27.136 163.574 27.136C164.614 27.136 165.511 27.5347 166.265 28.332L165.628 29.008C165.004 28.3493 164.315 28.02 163.561 28.02C162.885 28.02 162.313 28.2757 161.845 28.787C161.385 29.2897 161.156 29.9093 161.156 30.646C161.156 31.374 161.39 31.9937 161.858 32.505C162.334 33.0077 162.924 33.259 163.626 33.259C164.345 33.259 165.021 32.921 165.654 32.245L166.317 32.856C165.537 33.7227 164.622 34.156 163.574 34.156ZM169.974 34.143C169.289 34.143 168.7 33.9567 168.206 33.584C167.712 33.2113 167.465 32.6913 167.465 32.024C167.465 31.322 167.725 30.7803 168.245 30.399C168.765 30.0177 169.462 29.827 170.338 29.827C171.031 29.827 171.716 29.9223 172.392 30.113V29.905C172.392 29.3157 172.218 28.865 171.872 28.553C171.525 28.241 171.035 28.085 170.403 28.085C169.744 28.085 169.064 28.2453 168.362 28.566L168.063 27.747C168.895 27.3657 169.709 27.175 170.507 27.175C171.46 27.175 172.184 27.422 172.678 27.916C173.146 28.384 173.38 29.0427 173.38 29.892V34H172.392V32.999C171.794 33.7617 170.988 34.143 169.974 34.143ZM170.169 33.337C170.793 33.337 171.321 33.168 171.755 32.83C172.188 32.492 172.405 32.0587 172.405 31.53V30.906C171.746 30.7153 171.092 30.62 170.442 30.62C169.826 30.62 169.345 30.7457 168.999 30.997C168.652 31.2397 168.479 31.5733 168.479 31.998C168.479 32.4053 168.639 32.7303 168.96 32.973C169.289 33.2157 169.692 33.337 170.169 33.337ZM175.5 34V27.279H176.501V32.596L180.492 27.279H181.467V34H180.466V28.683L176.462 34H175.5ZM179.66 25.875C179.331 26.1697 178.928 26.317 178.451 26.317C177.974 26.317 177.567 26.1697 177.229 25.875C176.9 25.5803 176.696 25.199 176.618 24.731L177.307 24.588C177.48 25.1947 177.862 25.498 178.451 25.498C179.04 25.498 179.422 25.1947 179.595 24.588L180.284 24.731C180.206 25.199 179.998 25.5803 179.66 25.875ZM185.326 34V28.163H182.921V27.279H188.745V28.163H186.34V34H185.326Z" fill="#1C1C1C"/>
<rect x="20.5" y="50.5" width="129" height="89" rx="4.5" stroke="#D9DDEE"/>
<path d="M28 67.5H138" stroke="#D9DDEE" stroke-linecap="round"/>
<rect x="28.5" y="54.5" width="9" height="9" rx="0.5" stroke="#D9DDEE"/>
<rect x="42" y="63" width="15" height="1" fill="#D9DDEE"/>
<rect x="28" y="89" width="39" height="1" fill="#D9DDEE"/>
<rect x="28" y="82" width="23" height="3" fill="#D9DDEE"/>
<rect x="28" y="93" width="23" height="1" fill="#D9DDEE"/>
<rect x="88.5" y="76.5" width="49" height="24" rx="0.5" stroke="#D9DDEE"/>
<rect x="58.5" y="107.5" width="24" height="25" rx="0.5" stroke="#D9DDEE"/>
<rect x="88.5" y="107.5" width="24" height="25" rx="0.5" stroke="#D9DDEE"/>
<rect x="118.5" y="107.5" width="24" height="25" rx="0.5" stroke="#D9DDEE"/>
<rect x="28.5" y="107.5" width="24" height="25" rx="0.5" stroke="#D9DDEE"/>
<path d="M200.5 101L200.5 131C200.5 132.657 199.157 134 197.5 134L166 134" stroke="#D9DDEE" stroke-linecap="round"/>
<rect x="203.5" y="74.5" width="48" height="31" rx="2.5" stroke="#D9DDEE"/>
<rect x="142" y="69" width="50" height="58" rx="3" fill="#8962D9"/>
<path opacity="0.4" d="M172.889 98.8967C174.284 98.7007 175.358 97.5047 175.361 96.0557C175.361 94.6277 174.32 93.4437 172.955 93.2197" stroke="white" stroke-width="1.5" stroke-linecap="round" stroke-linejoin="round"/>
<path d="M174.729 102.25C176.08 102.452 177.023 102.925 177.023 103.9C177.023 104.571 176.579 105.007 175.861 105.281" stroke="white" stroke-width="1.5" stroke-linecap="round" stroke-linejoin="round"/>
<path fill-rule="evenodd" clip-rule="evenodd" d="M166.887 102.664C163.673 102.664 160.928 103.151 160.928 105.096C160.928 107.04 163.656 107.541 166.887 107.541C170.101 107.541 172.845 107.059 172.845 105.113C172.845 103.167 170.118 102.664 166.887 102.664Z" stroke="white" stroke-width="1.5" stroke-linecap="round" stroke-linejoin="round"/>
<path opacity="0.4" fill-rule="evenodd" clip-rule="evenodd" d="M166.887 99.8879C168.996 99.8879 170.706 98.1789 170.706 96.0689C170.706 93.9599 168.996 92.2499 166.887 92.2499C164.778 92.2499 163.068 93.9599 163.068 96.0689C163.06 98.1709 164.757 99.8809 166.859 99.8879H166.887Z" stroke="white" stroke-width="1.5" stroke-linecap="round" stroke-linejoin="round"/>
<path opacity="0.4" d="M160.884 98.8967C159.488 98.7007 158.415 97.5047 158.412 96.0557C158.412 94.6277 159.453 93.4437 160.818 93.2197" stroke="white" stroke-width="1.5" stroke-linecap="round" stroke-linejoin="round"/>
<path d="M159.044 102.25C157.693 102.452 156.75 102.925 156.75 103.9C156.75 104.571 157.194 105.007 157.912 105.281" stroke="white" stroke-width="1.5" stroke-linecap="round" stroke-linejoin="round"/>
<rect x="183" y="80" width="62" height="40" rx="3" fill="#50A7E5"/>
<path opacity="0.4" d="M204.805 103.477C204.805 103.477 204.947 105.215 204.98 105.763C205.024 106.498 205.308 107.319 205.782 107.889C206.451 108.697 207.239 108.982 208.291 108.984C209.528 108.986 218.523 108.986 219.76 108.984C220.812 108.982 221.6 108.697 222.269 107.889C222.743 107.319 223.027 106.498 223.072 105.763C223.104 105.215 223.246 103.477 223.246 103.477" stroke="white" stroke-width="1.5" stroke-linecap="round" stroke-linejoin="round"/>
<path d="M210.496 93.3295V92.9585C210.496 91.7385 211.484 90.7505 212.704 90.7505H215.286C216.505 90.7505 217.494 91.7385 217.494 92.9585L217.495 93.3295" stroke="white" stroke-width="1.5" stroke-linecap="round" stroke-linejoin="round"/>
<path d="M213.994 104.678V103.384" stroke="white" stroke-width="1.5" stroke-linecap="round" stroke-linejoin="round"/>
<path fill-rule="evenodd" clip-rule="evenodd" d="M204.75 96.3891V99.8561C206.668 101.121 208.966 102.007 211.488 102.358C211.79 101.257 212.783 100.45 213.99 100.45C215.178 100.45 216.191 101.257 216.473 102.368C219.005 102.017 221.312 101.131 223.24 99.8561V96.3891C223.24 94.6951 221.877 93.3311 220.183 93.3311H207.817C206.123 93.3311 204.75 94.6951 204.75 96.3891Z" stroke="white" stroke-width="1.5" stroke-linecap="round" stroke-linejoin="round"/>
<rect width="265" height="160" rx="10" fill="#F6F7FB"/>
<path d="M20 29C20 24.0294 24.0294 20 29 20C33.9706 20 38 24.0294 38 29C38 33.9706 33.9706 38 29 38C24.0294 38 20 33.9706 20 29Z" fill="white"/>
<path d="M29 36.8C24.6922 36.8 21.2 33.3078 21.2 29H18.8C18.8 34.6333 23.3667 39.2 29 39.2V36.8ZM36.8 29C36.8 33.3078 33.3078 36.8 29 36.8V39.2C34.6333 39.2 39.2 34.6333 39.2 29H36.8ZM29 21.2C33.3078 21.2 36.8 24.6922 36.8 29H39.2C39.2 23.3667 34.6333 18.8 29 18.8V21.2ZM29 18.8C23.3667 18.8 18.8 23.3667 18.8 29H21.2C21.2 24.6922 24.6922 21.2 29 21.2V18.8Z" fill="#D9D9EB"/>
<path d="M53.447 32.156C52.1383 32.156 51.0507 31.7053 50.184 30.804C49.3173 29.894 48.884 28.776 48.884 27.45C48.884 26.1413 49.3217 25.032 50.197 24.122C51.0723 23.2033 52.1687 22.744 53.486 22.744C54.2487 22.744 54.8987 22.8697 55.436 23.121C55.9733 23.3637 56.4977 23.7277 57.009 24.213L56.333 24.941C55.4577 24.109 54.5043 23.693 53.473 23.693C52.4677 23.693 51.627 24.0527 50.951 24.772C50.2837 25.4913 49.95 26.384 49.95 27.45C49.95 28.5073 50.288 29.4 50.964 30.128C51.64 30.8473 52.4763 31.207 53.473 31.207C54.0623 31.207 54.5823 31.0987 55.033 30.882C55.4837 30.6653 55.943 30.336 56.411 29.894L57.087 30.609C56.5757 31.1203 56.0383 31.506 55.475 31.766C54.9117 32.026 54.2357 32.156 53.447 32.156ZM60.7177 32.143C60.033 32.143 59.4437 31.9567 58.9497 31.584C58.4557 31.2113 58.2087 30.6913 58.2087 30.024C58.2087 29.322 58.4687 28.7803 58.9887 28.399C59.5087 28.0177 60.2063 27.827 61.0817 27.827C61.775 27.827 62.4597 27.9223 63.1357 28.113V27.905C63.1357 27.3157 62.9623 26.865 62.6157 26.553C62.269 26.241 61.7793 26.085 61.1467 26.085C60.488 26.085 59.8077 26.2453 59.1057 26.566L58.8067 25.747C59.6387 25.3657 60.4533 25.175 61.2507 25.175C62.204 25.175 62.9277 25.422 63.4217 25.916C63.8897 26.384 64.1237 27.0427 64.1237 27.892V32H63.1357V30.999C62.5377 31.7617 61.7317 32.143 60.7177 32.143ZM60.9127 31.337C61.5367 31.337 62.0653 31.168 62.4987 30.83C62.932 30.492 63.1487 30.0587 63.1487 29.53V28.906C62.49 28.7153 61.8357 28.62 61.1857 28.62C60.5703 28.62 60.0893 28.7457 59.7427 28.997C59.396 29.2397 59.2227 29.5733 59.2227 29.998C59.2227 30.4053 59.383 30.7303 59.7037 30.973C60.033 31.2157 60.436 31.337 60.9127 31.337ZM66.244 32V25.279H67.245V30.596L71.236 25.279H72.211V32H71.21V26.683L67.206 32H66.244ZM70.404 23.875C70.0746 24.1697 69.6716 24.317 69.195 24.317C68.7183 24.317 68.311 24.1697 67.973 23.875C67.6436 23.5803 67.44 23.199 67.362 22.731L68.051 22.588C68.2243 23.1947 68.6056 23.498 69.195 23.498C69.7843 23.498 70.1656 23.1947 70.339 22.588L71.028 22.731C70.95 23.199 70.742 23.5803 70.404 23.875ZM76.0701 32V26.163H73.6651V25.279H79.4891V26.163H77.0841V32H76.0701ZM80.6721 28.62V27.567H84.2861V28.62H80.6721ZM86.2518 32V25.279H89.5018C90.1691 25.279 90.7021 25.4307 91.1008 25.734C91.4995 26.0373 91.6988 26.4447 91.6988 26.956C91.6988 27.6753 91.3261 28.191 90.5808 28.503C91.5688 28.7717 92.0628 29.3263 92.0628 30.167C92.0628 30.7303 91.8418 31.1767 91.3998 31.506C90.9578 31.8353 90.3641 32 89.6188 32H86.2518ZM87.2528 31.142H89.4888C89.9655 31.142 90.3425 31.0423 90.6198 30.843C90.8971 30.6437 91.0358 30.3663 91.0358 30.011C91.0358 29.6817 90.8885 29.426 90.5938 29.244C90.3078 29.062 89.8961 28.971 89.3588 28.971H87.2528V31.142ZM87.2528 28.165H89.3198C89.7358 28.165 90.0651 28.074 90.3078 27.892C90.5591 27.7013 90.6848 27.4327 90.6848 27.086C90.6848 26.8 90.5678 26.5703 90.3338 26.397C90.0998 26.2237 89.7705 26.137 89.3458 26.137H87.2528V28.165ZM93.869 32V25.279H94.87V30.596L98.861 25.279H99.836V32H98.835V26.683L94.831 32H93.869ZM103.695 32V26.163H101.29V25.279H107.114V26.163H104.709V32H103.695ZM108.57 34.08V25.279H109.571V26.631C110.247 25.6343 111.105 25.136 112.145 25.136C113.003 25.136 113.753 25.4567 114.394 26.098C115.035 26.7307 115.356 27.58 115.356 28.646C115.356 29.6947 115.035 30.5397 114.394 31.181C113.753 31.8223 113.003 32.143 112.145 32.143C111.088 32.143 110.23 31.6663 109.571 30.713V34.08H108.57ZM111.963 31.246C112.639 31.246 113.202 31.012 113.653 30.544C114.104 30.0673 114.329 29.4303 114.329 28.633C114.329 27.8617 114.099 27.2377 113.64 26.761C113.181 26.2757 112.622 26.033 111.963 26.033C111.313 26.033 110.745 26.28 110.26 26.774C109.775 27.268 109.532 27.892 109.532 28.646C109.532 29.4 109.775 30.024 110.26 30.518C110.745 31.0033 111.313 31.246 111.963 31.246ZM117.203 32V25.279H118.204V30.596L122.195 25.279H123.17V32H122.169V26.683L118.165 32H117.203ZM125.404 32V25.279H126.405V28.178H130.279V25.279H131.28V32H130.279V29.062H126.405V32H125.404ZM135.518 32.143C134.834 32.143 134.244 31.9567 133.75 31.584C133.256 31.2113 133.009 30.6913 133.009 30.024C133.009 29.322 133.269 28.7803 133.789 28.399C134.309 28.0177 135.007 27.827 135.882 27.827C136.576 27.827 137.26 27.9223 137.936 28.113V27.905C137.936 27.3157 137.763 26.865 137.416 26.553C137.07 26.241 136.58 26.085 135.947 26.085C135.289 26.085 134.608 26.2453 133.906 26.566L133.607 25.747C134.439 25.3657 135.254 25.175 136.051 25.175C137.005 25.175 137.728 25.422 138.222 25.916C138.69 26.384 138.924 27.0427 138.924 27.892V32H137.936V30.999C137.338 31.7617 136.532 32.143 135.518 32.143ZM135.713 31.337C136.337 31.337 136.866 31.168 137.299 30.83C137.733 30.492 137.949 30.0587 137.949 29.53V28.906C137.291 28.7153 136.636 28.62 135.986 28.62C135.371 28.62 134.89 28.7457 134.543 28.997C134.197 29.2397 134.023 29.5733 134.023 29.998C134.023 30.4053 134.184 30.7303 134.504 30.973C134.834 31.2157 135.237 31.337 135.713 31.337Z" fill="#1C1C1C"/>
<rect x="20.5" y="48.5" width="129" height="89" rx="4.5" stroke="#D9DDEE"/>
<path d="M28 65.5H138" stroke="#D9DDEE" stroke-linecap="round"/>
<rect x="28.5" y="52.5" width="9" height="9" rx="0.5" stroke="#D9DDEE"/>
<rect x="58.5" y="74.5" width="24" height="25" rx="0.5" stroke="#D9DDEE"/>
<rect x="58.5" y="103.5" width="24" height="25" rx="0.5" stroke="#D9DDEE"/>
<rect x="88.5" y="74.5" width="24" height="25" rx="0.5" stroke="#D9DDEE"/>
<rect x="88.5" y="103.5" width="24" height="25" rx="0.5" stroke="#D9DDEE"/>
<rect x="118.5" y="74.5" width="24" height="25" rx="0.5" stroke="#D9DDEE"/>
<rect x="118.5" y="103.5" width="24" height="25" rx="0.5" stroke="#D9DDEE"/>
<rect x="42" y="61" width="15" height="1" fill="#D9DDEE"/>
<rect x="28.5" y="74.5" width="24" height="25" rx="0.5" stroke="#D9DDEE"/>
<rect x="28.5" y="103.5" width="24" height="25" rx="0.5" stroke="#D9DDEE"/>
<path d="M203.5 106.5L203.5 125C203.5 126.657 202.157 128 200.5 128L182.5 128" stroke="#D9DDEE" stroke-linecap="round"/>
<rect x="183.5" y="38.5" width="61" height="44" rx="2.5" stroke="#D9DDEE"/>
<rect x="134" y="84" width="65" height="39" rx="4" fill="#6262D9"/>
<path d="M158.794 99.0557C158.794 97.8067 159.807 96.7937 161.055 96.7937H162.084C162.68 96.7937 163.253 96.5577 163.677 96.1367L164.396 95.4167C165.277 94.5317 166.709 94.5277 167.594 95.4087L167.603 95.4167L168.323 96.1367C168.746 96.5577 169.319 96.7937 169.916 96.7937H170.944C172.193 96.7937 173.206 97.8067 173.206 99.0557V100.083C173.206 100.681 173.442 101.253 173.863 101.677L174.583 102.397C175.468 103.278 175.473 104.709 174.592 105.595L174.583 105.604L173.863 106.324C173.442 106.746 173.206 107.32 173.206 107.916V108.945C173.206 110.194 172.193 111.206 170.944 111.206H169.916C169.319 111.206 168.746 111.443 168.323 111.864L167.603 112.583C166.723 113.469 165.291 113.473 164.405 112.592C164.402 112.589 164.399 112.586 164.396 112.583L163.677 111.864C163.253 111.443 162.68 111.206 162.084 111.206H161.055C159.807 111.206 158.794 110.194 158.794 108.945V107.916C158.794 107.32 158.557 106.746 158.136 106.324L157.417 105.604C156.531 104.723 156.527 103.291 157.408 102.406L157.417 102.397L158.136 101.677C158.557 101.253 158.794 100.681 158.794 100.083V99.0557" stroke="white" stroke-width="1.5" stroke-linecap="round" stroke-linejoin="round"/>
<path opacity="0.4" d="M163.43 106.569L168.57 101.429" stroke="white" stroke-width="1.5" stroke-linecap="round" stroke-linejoin="round"/>
<path opacity="0.4" d="M168.566 107.322C168.366 107.322 168.176 107.242 168.036 107.102C167.966 107.032 167.916 106.942 167.876 106.852C167.836 106.762 167.816 106.673 167.816 106.572C167.816 106.472 167.836 106.372 167.876 106.282C167.916 106.192 167.966 106.112 168.036 106.042C168.316 105.762 168.816 105.762 169.096 106.042C169.166 106.112 169.226 106.192 169.266 106.282C169.296 106.372 169.316 106.472 169.316 106.572C169.316 106.673 169.296 106.762 169.266 106.852C169.226 106.942 169.166 107.032 169.096 107.102C168.956 107.242 168.766 107.322 168.566 107.322Z" fill="white"/>
<path opacity="0.4" d="M163.426 102.183C163.326 102.183 163.236 102.162 163.146 102.122C163.056 102.082 162.966 102.033 162.896 101.963C162.826 101.883 162.776 101.803 162.736 101.713C162.696 101.622 162.676 101.533 162.676 101.433C162.676 101.332 162.696 101.233 162.736 101.143C162.776 101.053 162.826 100.963 162.896 100.903C163.186 100.622 163.676 100.622 163.956 100.903C164.096 101.042 164.176 101.233 164.176 101.433C164.176 101.533 164.166 101.622 164.126 101.713C164.086 101.803 164.026 101.883 163.956 101.963C163.886 102.033 163.806 102.082 163.716 102.122C163.626 102.162 163.526 102.183 163.426 102.183Z" fill="white"/>
<rect x="176" y="45" width="61" height="47" rx="4" fill="#57C3D9"/>
<path opacity="0.4" fill-rule="evenodd" clip-rule="evenodd" d="M201.422 75.8203C201.844 75.8203 202.187 76.1633 202.187 76.5853C202.187 77.0073 201.844 77.3493 201.422 77.3493C201 77.3493 200.658 77.0073 200.658 76.5853C200.658 76.1633 201 75.8203 201.422 75.8203Z" stroke="white" stroke-width="1.5" stroke-linecap="round" stroke-linejoin="round"/>
<path opacity="0.4" fill-rule="evenodd" clip-rule="evenodd" d="M212.675 75.8203C213.097 75.8203 213.44 76.1633 213.44 76.5853C213.44 77.0073 213.097 77.3493 212.675 77.3493C212.253 77.3493 211.91 77.0073 211.91 76.5853C211.91 76.1633 212.253 75.8203 212.675 75.8203Z" stroke="white" stroke-width="1.5" stroke-linecap="round" stroke-linejoin="round"/>
<path d="M196.75 59.25L198.83 59.61L199.793 71.083C199.871 72.018 200.652 72.736 201.59 72.736H212.502C213.398 72.736 214.158 72.078 214.287 71.19L215.236 64.632C215.353 63.823 214.726 63.099 213.909 63.099H199.164" stroke="white" stroke-width="1.5" stroke-linecap="round" stroke-linejoin="round"/>
<path opacity="0.4" d="M208.125 66.795H210.898" stroke="white" stroke-width="1.5" stroke-linecap="round" stroke-linejoin="round"/>
<rect width="265" height="160" rx="10" fill="#FBFBFD"/>
<rect x="20.5" y="50.5" width="129" height="89" rx="4.5" stroke="#D9DDEE"/>
<path d="M28 67.5H138" stroke="#D9DDEE" stroke-linecap="round"/>
<rect x="28.5" y="54.5" width="9" height="9" rx="0.5" stroke="#D9DDEE"/>
<rect x="42" y="63" width="15" height="1" fill="#D9DDEE"/>
<rect x="28" y="89" width="39" height="1" fill="#D9DDEE"/>
<rect x="28" y="82" width="23" height="3" fill="#D9DDEE"/>
<rect x="28" y="93" width="23" height="1" fill="#D9DDEE"/>
<rect x="88.5" y="76.5" width="49" height="24" rx="0.5" stroke="#D9DDEE"/>
<rect x="58.5" y="107.5" width="24" height="25" rx="0.5" stroke="#D9DDEE"/>
<rect x="88.5" y="107.5" width="24" height="25" rx="0.5" stroke="#D9DDEE"/>
<rect x="118.5" y="107.5" width="24" height="25" rx="0.5" stroke="#D9DDEE"/>
<rect x="28.5" y="107.5" width="24" height="25" rx="0.5" stroke="#D9DDEE"/>
<path d="M200.5 101L200.5 131C200.5 132.657 199.157 134 197.5 134L166 134" stroke="#D9DDEE" stroke-linecap="round"/>
<rect x="203.5" y="74.5" width="48" height="31" rx="2.5" stroke="#D9DDEE"/>
<rect x="142" y="69" width="50" height="58" rx="3" fill="#F23061"/>
<path opacity="0.4" d="M172.889 98.8967C174.284 98.7007 175.358 97.5047 175.361 96.0557C175.361 94.6277 174.32 93.4437 172.955 93.2197" stroke="white" stroke-width="1.5" stroke-linecap="round" stroke-linejoin="round"/>
<path d="M174.729 102.25C176.08 102.452 177.023 102.925 177.023 103.9C177.023 104.571 176.579 105.007 175.861 105.281" stroke="white" stroke-width="1.5" stroke-linecap="round" stroke-linejoin="round"/>
<path fill-rule="evenodd" clip-rule="evenodd" d="M166.887 102.664C163.673 102.664 160.928 103.151 160.928 105.096C160.928 107.04 163.656 107.541 166.887 107.541C170.101 107.541 172.845 107.059 172.845 105.113C172.845 103.167 170.118 102.664 166.887 102.664Z" stroke="white" stroke-width="1.5" stroke-linecap="round" stroke-linejoin="round"/>
<path opacity="0.4" fill-rule="evenodd" clip-rule="evenodd" d="M166.887 99.8879C168.996 99.8879 170.706 98.1789 170.706 96.0689C170.706 93.9599 168.996 92.2499 166.887 92.2499C164.778 92.2499 163.068 93.9599 163.068 96.0689C163.06 98.1709 164.757 99.8809 166.859 99.8879H166.887Z" stroke="white" stroke-width="1.5" stroke-linecap="round" stroke-linejoin="round"/>
<path opacity="0.4" d="M160.884 98.8967C159.488 98.7007 158.415 97.5047 158.412 96.0557C158.412 94.6277 159.453 93.4437 160.818 93.2197" stroke="white" stroke-width="1.5" stroke-linecap="round" stroke-linejoin="round"/>
<path d="M159.044 102.25C157.693 102.452 156.75 102.925 156.75 103.9C156.75 104.571 157.194 105.007 157.912 105.281" stroke="white" stroke-width="1.5" stroke-linecap="round" stroke-linejoin="round"/>
<rect x="183" y="80" width="62" height="40" rx="3" fill="#172026"/>
<path opacity="0.4" d="M204.805 103.477C204.805 103.477 204.947 105.215 204.98 105.763C205.024 106.498 205.308 107.319 205.782 107.889C206.451 108.697 207.239 108.982 208.291 108.984C209.528 108.986 218.523 108.986 219.76 108.984C220.812 108.982 221.6 108.697 222.269 107.889C222.743 107.319 223.027 106.498 223.072 105.763C223.104 105.215 223.246 103.477 223.246 103.477" stroke="white" stroke-width="1.5" stroke-linecap="round" stroke-linejoin="round"/>
<path d="M210.496 93.3295V92.9585C210.496 91.7385 211.484 90.7505 212.704 90.7505H215.286C216.505 90.7505 217.494 91.7385 217.494 92.9585L217.495 93.3295" stroke="white" stroke-width="1.5" stroke-linecap="round" stroke-linejoin="round"/>
<path d="M213.994 104.678V103.384" stroke="white" stroke-width="1.5" stroke-linecap="round" stroke-linejoin="round"/>
<path fill-rule="evenodd" clip-rule="evenodd" d="M204.75 96.3891V99.8561C206.668 101.121 208.966 102.007 211.488 102.358C211.79 101.257 212.783 100.45 213.99 100.45C215.178 100.45 216.191 101.257 216.473 102.368C219.005 102.017 221.312 101.131 223.24 99.8561V96.3891C223.24 94.6951 221.877 93.3311 220.183 93.3311H207.817C206.123 93.3311 204.75 94.6951 204.75 96.3891Z" stroke="white" stroke-width="1.5" stroke-linecap="round" stroke-linejoin="round"/>
</svg>
