<svg width="18" height="16" viewBox="0 0 18 16" fill="none" xmlns="http://www.w3.org/2000/svg">
<path fill-rule="evenodd" clip-rule="evenodd" d="M11.5337 1.37601C12.3753 1.71101 12.6328 2.87767 12.977 3.25267C13.3212 3.62767 13.8137 3.75517 14.0862 3.75517C15.5345 3.75517 16.7087 4.92934 16.7087 6.37684V11.206C16.7087 13.1477 15.1337 14.7227 13.192 14.7227H4.80866C2.86616 14.7227 1.29199 13.1477 1.29199 11.206V6.37684C1.29199 4.92934 2.46616 3.75517 3.91449 3.75517C4.18616 3.75517 4.67866 3.62767 5.02366 3.25267C5.36783 2.87767 5.62449 1.71101 6.46616 1.37601C7.30866 1.04101 10.692 1.04101 11.5337 1.37601Z" stroke="white" stroke-width="1.5" stroke-linecap="round" stroke-linejoin="round"/>
<path d="M13.5799 6.08317H13.5874" stroke="white" stroke-width="2" stroke-linecap="round" stroke-linejoin="round"/>
<path fill-rule="evenodd" clip-rule="evenodd" d="M11.6489 8.64868C11.6489 7.18534 10.4631 5.99951 8.99975 5.99951C7.53642 5.99951 6.35059 7.18534 6.35059 8.64868C6.35059 10.112 7.53642 11.2978 8.99975 11.2978C10.4631 11.2978 11.6489 10.112 11.6489 8.64868Z" stroke="white" stroke-width="1.5" stroke-linecap="round" stroke-linejoin="round"/>
</svg>
