<svg width="19" height="18" viewBox="0 0 19 18" fill="none" xmlns="http://www.w3.org/2000/svg">
<path fill-rule="evenodd" clip-rule="evenodd" d="M9.50002 0C8.46771 0 7.55518 0.670882 7.24727 1.6562L2.76483 16H1.5C0.947715 16 0.5 16.4477 0.5 17C0.5 17.5523 0.947715 18 1.5 18H17.5C18.0523 18 18.5 17.5523 18.5 17C18.5 16.4477 18.0523 16 17.5 16H16.2352L11.7528 1.65621C11.4449 0.670884 10.5323 0 9.50002 0ZM14.1398 16L13.2023 13H5.79771L4.86021 16H14.1398ZM9.15623 2.25275C9.20322 2.10238 9.34248 2 9.50002 2C9.65756 2 9.79683 2.10238 9.84382 2.25276L11.0148 6H7.98521L9.15623 2.25275ZM7.36021 8L6.42271 11H12.5773L11.6398 8H7.36021Z" fill="white"/>
</svg>
