<svg width="16" height="15" viewBox="0 0 16 15" fill="none" xmlns="http://www.w3.org/2000/svg">
<path fill-rule="evenodd" clip-rule="evenodd" d="M9.17601 0.978509C10.4778 -0.32326 12.5884 -0.323238 13.8901 0.978563L14.5213 1.60979C15.823 2.91155 15.823 5.02208 14.5212 6.3238L7.39693 13.448C6.9824 13.8625 6.46589 14.1603 5.8995 14.3115L3.6473 14.9126C1.79004 15.4083 0.0915318 13.7099 0.587157 11.8526L1.18819 9.60031C1.33935 9.03385 1.63724 8.51729 2.0518 8.10273L9.17601 0.978509ZM12.7116 2.15705C12.0607 1.50615 11.0054 1.50613 10.3545 2.15702L9.59505 2.9165L12.5833 5.90472L13.3427 5.14528C13.9936 4.49442 13.9936 3.43916 13.3428 2.78827L12.7116 2.15705ZM4.59505 7.9165L8.41654 4.09501L11.4048 7.08322L7.58322 10.9047L4.59505 7.9165ZM3.41654 9.09501L3.23031 9.28124C3.02303 9.48852 2.87408 9.7468 2.7985 10.03L2.19747 12.2823C2.03226 12.9014 2.59843 13.4675 3.21752 13.3023L5.46971 12.7012C5.75291 12.6256 6.01117 12.4767 6.21843 12.2694L6.4047 12.0832L3.41654 9.09501Z" fill="#172026"/>
</svg>
