<svg width="20" height="21" viewBox="0 0 20 21" fill="none" xmlns="http://www.w3.org/2000/svg">
<path fill-rule="evenodd" clip-rule="evenodd" d="M8.67884 3.97631C9.30397 3.35119 10.1518 3 11.0359 3H15.0003C16.381 3 17.5003 4.11929 17.5003 5.5V9.46447C17.5003 10.3485 17.1491 11.1964 16.524 11.8215L11.0764 17.2691C10.1001 18.2454 8.51721 18.2454 7.5409 17.2691L3.23126 12.9594C2.25495 11.9831 2.25494 10.4002 3.23126 9.4239L8.67884 3.97631ZM11.0359 4.66667C10.5938 4.66667 10.1699 4.84226 9.85736 5.15482L4.40977 10.6024C4.08433 10.9278 4.08433 11.4555 4.40977 11.7809L8.71941 16.0906C9.04485 16.416 9.57248 16.416 9.89792 16.0906L15.3455 10.643C15.6581 10.3304 15.8337 9.90649 15.8337 9.46447V5.5C15.8337 5.03976 15.4606 4.66667 15.0003 4.66667H11.0359Z" fill="#172026"/>
<path d="M3.82129 8.83342L4.9998 7.65491L12.845 15.5001L11.6665 16.6786L3.82129 8.83342Z" fill="#172026"/>
<path d="M14.1667 7.16671C14.1667 7.62694 13.7936 8.00004 13.3333 8.00004C12.8731 8.00004 12.5 7.62694 12.5 7.16671C12.5 6.70647 12.8731 6.33337 13.3333 6.33337C13.7936 6.33337 14.1667 6.70647 14.1667 7.16671Z" fill="#172026"/>
</svg>
