<svg width="20" height="21" viewBox="0 0 20 21" fill="none" xmlns="http://www.w3.org/2000/svg">
<path fill-rule="evenodd" clip-rule="evenodd" d="M7.50033 9.66667V13H5.83366V9.66667H7.50033ZM4.16699 8H5.83366H7.50033H9.16699V9.66667V13V14.6667H7.50033H5.83366H4.16699V13V9.66667V8ZM14.167 9.66667V13H12.5003V9.66667H14.167ZM10.8337 8H12.5003H14.167H15.8337V9.66667V13V14.6667H14.167H12.5003H10.8337V13V9.66667V8Z" fill="#172026"/>
<path fill-rule="evenodd" clip-rule="evenodd" d="M15 14.6667H5C4.53976 14.6667 4.16667 15.0398 4.16667 15.5C4.16667 15.9602 4.53976 16.3333 5 16.3333H15C15.4602 16.3333 15.8333 15.9602 15.8333 15.5C15.8333 15.0398 15.4602 14.6667 15 14.6667ZM5 13C3.61929 13 2.5 14.1193 2.5 15.5C2.5 16.8807 3.61929 18 5 18H15C16.3807 18 17.5 16.8807 17.5 15.5C17.5 14.1193 16.3807 13 15 13H5Z" fill="#172026"/>
<path fill-rule="evenodd" clip-rule="evenodd" d="M4.94055 7.99998H15.0595C15.4869 7.99998 15.8333 7.6535 15.8333 7.2261C15.8333 6.89808 15.6265 6.60569 15.3173 6.49642L10.2776 4.71585C10.098 4.65239 9.90202 4.65239 9.72239 4.71585L4.68274 6.49642C4.37346 6.60569 4.16667 6.89808 4.16667 7.2261C4.16667 7.6535 4.51314 7.99998 4.94055 7.99998ZM4.12753 4.92495C3.15216 5.26956 2.5 6.19164 2.5 7.2261C2.5 8.57397 3.59267 9.66664 4.94055 9.66664H15.0595C16.4073 9.66664 17.5 8.57397 17.5 7.2261C17.5 6.19164 16.8478 5.26956 15.8725 4.92495L10.8328 3.14439C10.2939 2.95399 9.70607 2.95399 9.16717 3.14439L4.12753 4.92495Z" fill="#172026"/>
</svg>
