<svg width="20" height="21" viewBox="0 0 20 21" fill="none" xmlns="http://www.w3.org/2000/svg">
<path fill-rule="evenodd" clip-rule="evenodd" d="M12.4997 13.8334C12.4997 12.4527 11.3804 11.3334 9.99967 11.3334L6.66634 11.3334C6.2061 11.3334 5.83301 11.7065 5.83301 12.1667C5.83301 12.6269 6.2061 13 6.66634 13H9.99967C10.4599 13 10.833 13.3731 10.833 13.8334C10.833 14.2936 10.4599 14.6667 9.99967 14.6667H6.66634C6.2061 14.6667 5.83301 15.0398 5.83301 15.5C5.83301 15.9603 6.2061 16.3334 6.66634 16.3334H9.99967C11.3804 16.3334 12.4997 15.2141 12.4997 13.8334Z" fill="#172026"/>
<path fill-rule="evenodd" clip-rule="evenodd" d="M17.4997 7.16663C17.4997 5.78591 16.3804 4.66663 14.9997 4.66663H6.66634C6.2061 4.66663 5.83301 5.03972 5.83301 5.49996C5.83301 5.9602 6.2061 6.33329 6.66634 6.33329L14.9997 6.33329C15.4599 6.33329 15.833 6.70639 15.833 7.16663C15.833 7.62686 15.4599 7.99996 14.9997 7.99996L6.66634 7.99996C6.2061 7.99996 5.83301 8.37306 5.83301 8.83329C5.83301 9.29353 6.2061 9.66663 6.66634 9.66663L14.9997 9.66663C16.3804 9.66663 17.4997 8.54734 17.4997 7.16663Z" fill="#172026"/>
<path fill-rule="evenodd" clip-rule="evenodd" d="M3.33333 3C3.79357 3 4.16667 3.3731 4.16667 3.83333V17.1667C4.16667 17.6269 3.79357 18 3.33333 18C2.8731 18 2.5 17.6269 2.5 17.1667V3.83333C2.5 3.3731 2.8731 3 3.33333 3Z" fill="#172026"/>
</svg>
