<svg width="16" height="18" viewBox="0 0 16 18" fill="none" xmlns="http://www.w3.org/2000/svg">
<path fill-rule="evenodd" clip-rule="evenodd" d="M10.2803 1.30164H4.73699C3.02116 1.30164 1.54199 2.69247 1.54199 4.40914V13.45C1.54199 15.2633 2.92366 16.5958 4.73699 16.5958H11.3937C13.1103 16.5958 14.502 15.1666 14.502 13.45V5.6983L10.2803 1.30164Z" stroke="white" stroke-width="1.5" stroke-linecap="round" stroke-linejoin="round"/>
<path d="M10.0615 1.29187V3.71604C10.0615 4.89937 11.019 5.85937 12.2024 5.86187C13.299 5.86437 14.4215 5.8652 14.4974 5.8602" stroke="white" stroke-width="1.5" stroke-linecap="round" stroke-linejoin="round"/>
<path fill-rule="evenodd" clip-rule="evenodd" d="M8.62002 7.72046C8.62002 7.30625 8.28423 6.97046 7.87002 6.97046C7.4558 6.97046 7.12002 7.30625 7.12002 7.72046V9.01188H5.82812C5.41391 9.01188 5.07812 9.34767 5.07812 9.76188C5.07812 10.1761 5.41391 10.5119 5.82812 10.5119H7.12002V11.8046C7.12002 12.2188 7.4558 12.5546 7.87002 12.5546C8.28423 12.5546 8.62002 12.2188 8.62002 11.8046V10.5119H9.91229C10.3265 10.5119 10.6623 10.1761 10.6623 9.76188C10.6623 9.34767 10.3265 9.01188 9.91229 9.01188H8.62002V7.72046Z" fill="white"/>
</svg>
