<svg width="20" height="21" viewBox="0 0 20 21" fill="none" xmlns="http://www.w3.org/2000/svg">
<path fill-rule="evenodd" clip-rule="evenodd" d="M4.32164 3.01055C3.28508 2.91632 2.41669 3.78471 2.51092 4.82127L3.07846 11.0643C3.26547 13.1214 4.6982 14.8517 6.68432 15.4192L9.56359 16.2418L10.5908 17.2691C11.5672 18.2454 13.1501 18.2454 14.1264 17.2691L16.7694 14.6261C17.7457 13.6498 17.7457 12.0669 16.7694 11.0906L15.7423 10.0635L14.9196 7.18396C14.3521 5.19784 12.6217 3.76511 10.5646 3.5781L4.32164 3.01055ZM15.0002 11.6785L11.1788 15.5L11.7694 16.0906C12.0948 16.416 12.6224 16.416 12.9479 16.0906L15.5908 13.4476C15.9163 13.1222 15.9163 12.5945 15.5908 12.2691L15.0002 11.6785ZM4.17074 4.67038L10.4137 5.23792C11.7851 5.36259 12.9387 6.31775 13.317 7.64183L14.0643 10.2574L9.75776 14.564L7.14219 13.8167C5.81811 13.4383 4.86296 12.2848 4.73829 10.9134L4.17074 4.67038Z" fill="#172026"/>
<path d="M2.99139 3.4916C2.60958 3.87329 2.79435 4.47324 3.1761 4.85499L7.55614 9.23503C7.51932 9.37272 7.49969 9.51743 7.49969 9.66673C7.49969 10.5872 8.24588 11.3334 9.16635 11.3334C10.0868 11.3334 10.833 10.5872 10.833 9.66673C10.833 8.74626 10.0868 8.00007 9.16635 8.00007C9.01705 8.00007 8.87234 8.0197 8.73465 8.05652L4.35458 3.67645C3.97291 3.29478 3.37312 3.10999 2.99139 3.4916Z" fill="#172026"/>
</svg>
