<svg width="10" height="10" viewBox="0 0 10 10" fill="none" xmlns="http://www.w3.org/2000/svg">
<path fill-rule="evenodd" clip-rule="evenodd" d="M1.28039 0.219603C0.987523 -0.0733206 0.512649 -0.0733701 0.219725 0.219493C-0.0731986 0.512355 -0.073248 0.987229 0.219615 1.28015L3.49878 4.56001L0.223548 7.83524C-0.0693448 8.12814 -0.0693448 8.60301 0.223548 8.8959C0.516442 9.1888 0.991315 9.1888 1.28421 8.8959L4.55933 5.62078L7.83856 8.90069C8.13142 9.19361 8.6063 9.19366 8.89922 8.9008C9.19215 8.60793 9.19219 8.13306 8.89933 7.84014L5.61999 4.56012L8.8968 1.28331C9.18969 0.990417 9.18969 0.515544 8.8968 0.222651C8.60391 -0.0702427 8.12903 -0.0702427 7.83614 0.222651L4.55944 3.49935L1.28039 0.219603Z" fill="#F23061"/>
</svg>
