<svg width="265" height="160" viewBox="0 0 265 160" fill="none" xmlns="http://www.w3.org/2000/svg">
<rect width="265" height="160" rx="10" fill="#FBFBFD"/>
<rect x="20.5" y="48.5" width="129" height="89" rx="4.5" stroke="#D9DDEE"/>
<path d="M28 65.5H138" stroke="#D9DDEE" stroke-linecap="round"/>
<rect x="28.5" y="52.5" width="9" height="9" rx="0.5" stroke="#D9DDEE"/>
<rect x="58.5" y="74.5" width="24" height="25" rx="0.5" stroke="#D9DDEE"/>
<rect x="58.5" y="103.5" width="24" height="25" rx="0.5" stroke="#D9DDEE"/>
<rect x="88.5" y="74.5" width="24" height="25" rx="0.5" stroke="#D9DDEE"/>
<rect x="88.5" y="103.5" width="24" height="25" rx="0.5" stroke="#D9DDEE"/>
<rect x="118.5" y="74.5" width="24" height="25" rx="0.5" stroke="#D9DDEE"/>
<rect x="118.5" y="103.5" width="24" height="25" rx="0.5" stroke="#D9DDEE"/>
<rect x="42" y="61" width="15" height="1" fill="#D9DDEE"/>
<rect x="28.5" y="74.5" width="24" height="25" rx="0.5" stroke="#D9DDEE"/>
<rect x="28.5" y="103.5" width="24" height="25" rx="0.5" stroke="#D9DDEE"/>
<path d="M203.5 106.5L203.5 125C203.5 126.657 202.157 128 200.5 128L182.5 128" stroke="#D9DDEE" stroke-linecap="round"/>
<rect x="183.5" y="38.5" width="61" height="44" rx="2.5" stroke="#D9DDEE"/>
<rect x="134" y="84" width="65" height="39" rx="4" fill="#6262D9"/>
<path d="M158.794 99.0557C158.794 97.8067 159.807 96.7937 161.055 96.7937H162.084C162.68 96.7937 163.253 96.5577 163.677 96.1367L164.396 95.4167C165.277 94.5317 166.709 94.5277 167.594 95.4087L167.603 95.4167L168.323 96.1367C168.746 96.5577 169.319 96.7937 169.916 96.7937H170.944C172.193 96.7937 173.206 97.8067 173.206 99.0557V100.083C173.206 100.681 173.442 101.253 173.863 101.677L174.583 102.397C175.468 103.278 175.473 104.709 174.592 105.595L174.583 105.604L173.863 106.324C173.442 106.746 173.206 107.32 173.206 107.916V108.945C173.206 110.194 172.193 111.206 170.944 111.206H169.916C169.319 111.206 168.746 111.443 168.323 111.864L167.603 112.583C166.723 113.469 165.291 113.473 164.405 112.592C164.402 112.589 164.399 112.586 164.396 112.583L163.677 111.864C163.253 111.443 162.68 111.206 162.084 111.206H161.055C159.807 111.206 158.794 110.194 158.794 108.945V107.916C158.794 107.32 158.557 106.746 158.136 106.324L157.417 105.604C156.531 104.723 156.527 103.291 157.408 102.406L157.417 102.397L158.136 101.677C158.557 101.253 158.794 100.681 158.794 100.083V99.0557" stroke="white" stroke-width="1.5" stroke-linecap="round" stroke-linejoin="round"/>
<path opacity="0.4" d="M163.43 106.569L168.57 101.429" stroke="white" stroke-width="1.5" stroke-linecap="round" stroke-linejoin="round"/>
<path opacity="0.4" d="M168.566 107.322C168.366 107.322 168.176 107.242 168.036 107.102C167.966 107.032 167.916 106.942 167.876 106.852C167.836 106.762 167.816 106.673 167.816 106.572C167.816 106.472 167.836 106.372 167.876 106.282C167.916 106.192 167.966 106.112 168.036 106.042C168.316 105.762 168.816 105.762 169.096 106.042C169.166 106.112 169.226 106.192 169.266 106.282C169.296 106.372 169.316 106.472 169.316 106.572C169.316 106.673 169.296 106.762 169.266 106.852C169.226 106.942 169.166 107.032 169.096 107.102C168.956 107.242 168.766 107.322 168.566 107.322Z" fill="white"/>
<path opacity="0.4" d="M163.426 102.183C163.326 102.183 163.236 102.162 163.146 102.122C163.056 102.082 162.966 102.033 162.896 101.963C162.826 101.883 162.776 101.803 162.736 101.713C162.696 101.622 162.676 101.533 162.676 101.433C162.676 101.332 162.696 101.233 162.736 101.143C162.776 101.053 162.826 100.963 162.896 100.903C163.186 100.622 163.676 100.622 163.956 100.903C164.096 101.042 164.176 101.233 164.176 101.433C164.176 101.533 164.166 101.622 164.126 101.713C164.086 101.803 164.026 101.883 163.956 101.963C163.886 102.033 163.806 102.082 163.716 102.122C163.626 102.162 163.526 102.183 163.426 102.183Z" fill="white"/>
<rect x="176" y="45" width="61" height="47" rx="4" fill="#1DBF53"/>
<path opacity="0.4" fill-rule="evenodd" clip-rule="evenodd" d="M201.422 75.8203C201.844 75.8203 202.187 76.1633 202.187 76.5853C202.187 77.0073 201.844 77.3493 201.422 77.3493C201 77.3493 200.658 77.0073 200.658 76.5853C200.658 76.1633 201 75.8203 201.422 75.8203Z" stroke="white" stroke-width="1.5" stroke-linecap="round" stroke-linejoin="round"/>
<path opacity="0.4" fill-rule="evenodd" clip-rule="evenodd" d="M212.675 75.8203C213.097 75.8203 213.44 76.1633 213.44 76.5853C213.44 77.0073 213.097 77.3493 212.675 77.3493C212.253 77.3493 211.91 77.0073 211.91 76.5853C211.91 76.1633 212.253 75.8203 212.675 75.8203Z" stroke="white" stroke-width="1.5" stroke-linecap="round" stroke-linejoin="round"/>
<path d="M196.75 59.25L198.83 59.61L199.793 71.083C199.871 72.018 200.652 72.736 201.59 72.736H212.502C213.398 72.736 214.158 72.078 214.287 71.19L215.236 64.632C215.353 63.823 214.726 63.099 213.909 63.099H199.164" stroke="white" stroke-width="1.5" stroke-linecap="round" stroke-linejoin="round"/>
<path opacity="0.4" d="M208.125 66.795H210.898" stroke="white" stroke-width="1.5" stroke-linecap="round" stroke-linejoin="round"/>
</svg>
