<svg width="20" height="20" viewBox="0 0 20 20" fill="none" xmlns="http://www.w3.org/2000/svg">
<path fill-rule="evenodd" clip-rule="evenodd" d="M14.1461 10.8334H17.5V9.16675H14.1461C13.937 4.95565 12.1606 1.66675 10 1.66675C7.83944 1.66675 6.06296 4.95565 5.85391 9.16675H2.5V10.8334H5.85391C6.06296 15.0445 7.83944 18.3334 10 18.3334C12.1606 18.3334 13.937 15.0445 14.1461 10.8334ZM12.4772 10.8334C12.3809 12.5784 11.9881 14.0822 11.4556 15.1473C10.7901 16.4781 10.1792 16.6667 10 16.6667C9.82079 16.6667 9.20986 16.4781 8.54443 15.1473C8.0119 14.0822 7.61912 12.5784 7.52283 10.8334H12.4772ZM7.52283 9.16675C7.61912 7.42176 8.0119 5.91794 8.54443 4.85288C9.20986 3.52202 9.82079 3.33341 10 3.33341C10.1792 3.33341 10.7901 3.52202 11.4556 4.85288C11.9881 5.91794 12.3809 7.42176 12.4772 9.16675H7.52283Z" fill="white"/>
<path fill-rule="evenodd" clip-rule="evenodd" d="M10.0003 16.6667C13.6822 16.6667 16.667 13.682 16.667 10.0001C16.667 6.31818 13.6822 3.33341 10.0003 3.33341C6.31843 3.33341 3.33366 6.31818 3.33366 10.0001C3.33366 13.682 6.31843 16.6667 10.0003 16.6667ZM10.0003 18.3334C14.6027 18.3334 18.3337 14.6025 18.3337 10.0001C18.3337 5.39771 14.6027 1.66675 10.0003 1.66675C5.39795 1.66675 1.66699 5.39771 1.66699 10.0001C1.66699 14.6025 5.39795 18.3334 10.0003 18.3334Z" fill="white"/>
</svg>
