<svg width="295" height="58" fill="none" xmlns="http://www.w3.org/2000/svg"><g clip-path="url(#clip0)"><rect width="295" height="58" rx="10" fill="url(#paint0_radial)"/><path d="M271.98 9.354c26.519-29.827 63.128-11.78 82.09-5.011.674.24.886 1.084.411 1.618L229.939 146.04c-3.669 4.127-9.99 4.498-14.118.829l-84.268-74.923a.993.993 0 01-.189-1.27c8.204-13.202 22.069-36.94 49.116-30.821 22.315 5.049 26.488-12.471 42.815-21.5 16.327-9.03 40.714-.035 48.685-9z" fill="#806FE0"/><g filter="url(#filter0_d)"><path d="M283.731 11.288c9.644 16.837 6.525 45.39-10.44 55.107-16.964 9.717-41.35-3.08-50.994-19.917 0 0 24.726 9.724 41.691.006 19.583-11.217 19.743-35.196 19.743-35.196z" fill="#FFF9E9"/></g><path d="M208.873 31.778l.242 3.818 2.897 2.498-3.556 1.41-1.482 3.527-2.44-2.946-3.812-.32 2.048-3.23-.874-3.724 3.705.95 3.272-1.983zM186.133 46.056l.092 1.45 1.101.95-1.352.536-.563 1.34-.927-1.119-1.449-.121.778-1.228-.332-1.416 1.408.361 1.244-.753zM216.36 10.37l.12 1.882 1.428 1.232-1.754.695-.73 1.739-1.203-1.453-1.879-.157 1.01-1.593-.432-1.836 1.827.468 1.613-.978zM195.789 6.522l.307 4.842 3.673 3.168-4.509 1.788-1.879 4.473-3.094-3.736-4.834-.405 2.597-4.097-1.109-4.723 4.699 1.205 4.149-2.515z" fill="#FFC619"/></g><defs><radialGradient id="paint0_radial" cx="0" cy="0" r="1" gradientUnits="userSpaceOnUse" gradientTransform="matrix(295.00032 58.00028 -24.33482 123.77144 0 0)"><stop stop-color="#6262D9"/><stop offset="1" stop-color="#8962D9"/></radialGradient><clipPath id="clip0"><rect width="295" height="58" rx="10" fill="#fff"/></clipPath><filter id="filter0_d" x="207.297" y="2.288" width="96.843" height="88.468" filterUnits="userSpaceOnUse" color-interpolation-filters="sRGB"><feFlood flood-opacity="0" result="BackgroundImageFix"/><feColorMatrix in="SourceAlpha" values="0 0 0 0 0 0 0 0 0 0 0 0 0 0 0 0 0 0 127 0" result="hardAlpha"/><feOffset dy="6"/><feGaussianBlur stdDeviation="7.5"/><feColorMatrix values="0 0 0 0 1 0 0 0 0 0.976471 0 0 0 0 0.913725 0 0 0 1 0"/><feBlend in2="BackgroundImageFix" result="effect1_dropShadow"/><feBlend in="SourceGraphic" in2="effect1_dropShadow" result="shape"/></filter></defs></svg>