<svg width="18" height="18" viewBox="0 0 18 18" fill="none" xmlns="http://www.w3.org/2000/svg">
<path d="M8.57699 1.32422H5.46116C2.89866 1.32422 1.29199 3.13839 1.29199 5.70672V12.6351C1.29199 15.2034 2.89116 17.0176 5.46116 17.0176H12.8145C15.3853 17.0176 16.9845 15.2034 16.9845 12.6351V9.27839" stroke="white" stroke-width="1.5" stroke-linecap="round" stroke-linejoin="round"/>
<path fill-rule="evenodd" clip-rule="evenodd" d="M6.35652 8.10074L12.584 1.87324C13.3599 1.09824 14.6174 1.09824 15.3932 1.87324L16.4074 2.88741C17.1832 3.66324 17.1832 4.92158 16.4074 5.69658L10.1499 11.9541C9.81069 12.2932 9.35069 12.4841 8.87069 12.4841H5.74902L5.82736 9.33408C5.83902 8.87074 6.02819 8.42908 6.35652 8.10074Z" stroke="white" stroke-width="1.5" stroke-linecap="round" stroke-linejoin="round"/>
<path d="M11.6377 2.83545L15.4427 6.64045" stroke="white" stroke-width="1.5" stroke-linecap="round" stroke-linejoin="round"/>
</svg>
