<svg width="20" height="21" viewBox="0 0 20 21" fill="none" xmlns="http://www.w3.org/2000/svg">
<path d="M11.667 13.5C11.667 13.0332 11.667 12.7999 11.7578 12.6216C11.8377 12.4648 11.9652 12.3373 12.122 12.2575C12.3003 12.1666 12.5336 12.1666 13.0003 12.1666H17.0003C17.467 12.1666 17.7004 12.1666 17.8787 12.2575C18.0355 12.3373 18.1629 12.4648 18.2428 12.6216C18.3337 12.7999 18.3337 13.0332 18.3337 13.5V15.8333C18.3337 16.3 18.3337 16.5334 18.2428 16.7116C18.1629 16.8684 18.0355 16.9959 17.8787 17.0758C17.7004 17.1666 17.467 17.1666 17.0003 17.1666H13.0003C12.5336 17.1666 12.3003 17.1666 12.122 17.0758C11.9652 16.9959 11.8377 16.8684 11.7578 16.7116C11.667 16.5334 11.667 16.3 11.667 15.8333V13.5Z" fill="#172026"/>
<path fill-rule="evenodd" clip-rule="evenodd" d="M6.46591 3.83337H11.8681C12.5389 3.83336 13.0925 3.83336 13.5435 3.8702C14.0119 3.90847 14.4425 3.99061 14.847 4.19669C15.4742 4.51626 15.9841 5.0262 16.3037 5.65341C16.5098 6.05785 16.5919 6.48844 16.6302 6.95685C16.667 7.40784 16.667 7.96147 16.667 8.63227V9.66671C16.667 10.1269 16.2939 10.5 15.8337 10.5C15.3734 10.5 15.0003 10.1269 15.0003 9.66671V8.66671C15.0003 7.95289 14.9997 7.46765 14.969 7.09257C14.9392 6.72723 14.8851 6.54039 14.8187 6.41006C14.6589 6.09645 14.4039 5.84149 14.0903 5.6817C13.96 5.61529 13.7731 5.56118 13.4078 5.53133C13.0327 5.50069 12.5475 5.50004 11.8337 5.50004H6.50033C5.78651 5.50004 5.30127 5.50069 4.92619 5.53133C4.56084 5.56118 4.37401 5.61529 4.24368 5.6817C3.93007 5.84149 3.6751 6.09645 3.51532 6.41006C3.44891 6.54039 3.3948 6.72723 3.36495 7.09257C3.33431 7.46765 3.33366 7.95289 3.33366 8.66671V10.6667C3.33366 11.3805 3.33431 11.8658 3.36495 12.2408C3.3948 12.6062 3.44891 12.793 3.51532 12.9234C3.6751 13.237 3.93007 13.4919 4.24367 13.6517C4.37401 13.7181 4.56084 13.7722 4.92619 13.8021C5.30127 13.8327 5.78651 13.8334 6.50033 13.8334H9.16699C9.62723 13.8334 10.0003 14.2065 10.0003 14.6667C10.0003 15.1269 9.62723 15.5 9.16699 15.5H6.46593C5.79511 15.5001 5.24147 15.5001 4.79047 15.4632C4.32206 15.4249 3.89147 15.3428 3.48703 15.1367C2.85982 14.8172 2.34988 14.3072 2.0303 13.68C1.82423 13.2756 1.74209 12.845 1.70382 12.3766C1.66697 11.9256 1.66698 11.3719 1.66699 10.7011V8.63229C1.66698 7.96148 1.66697 7.40785 1.70382 6.95685C1.74209 6.48844 1.82423 6.05785 2.0303 5.65341C2.34988 5.0262 2.85982 4.51626 3.48702 4.19669C3.89147 3.99061 4.32206 3.90847 4.79047 3.8702C5.24147 3.83336 5.7951 3.83336 6.46591 3.83337Z" fill="#172026"/>
</svg>
