<svg width="14" height="14" viewBox="0 0 14 14" fill="none" xmlns="http://www.w3.org/2000/svg">
<path fill-rule="evenodd" clip-rule="evenodd" d="M5.24967 9.33342C4.28318 9.33342 3.49967 10.1169 3.49967 11.0834C3.49967 11.4056 3.76084 11.6667 4.08301 11.6667H9.91634C10.2385 11.6667 10.4997 11.4056 10.4997 11.0834C10.4997 10.1169 9.71617 9.33342 8.74967 9.33342H5.24967ZM2.33301 11.0834C2.33301 9.47258 3.63884 8.16675 5.24967 8.16675H8.74967C10.3605 8.16675 11.6663 9.47258 11.6663 11.0834C11.6663 12.0499 10.8828 12.8334 9.91634 12.8334H4.08301C3.11651 12.8334 2.33301 12.0499 2.33301 11.0834Z" fill="white"/>
<path fill-rule="evenodd" clip-rule="evenodd" d="M6.99967 2.33341C6.03318 2.33341 5.24967 3.11692 5.24967 4.08341C5.24967 5.04991 6.03318 5.83341 6.99967 5.83341C7.96617 5.83341 8.74967 5.04991 8.74967 4.08341C8.74967 3.11692 7.96617 2.33341 6.99967 2.33341ZM4.08301 4.08341C4.08301 2.47258 5.38884 1.16675 6.99967 1.16675C8.6105 1.16675 9.91634 2.47258 9.91634 4.08341C9.91634 5.69424 8.6105 7.00008 6.99967 7.00008C5.38884 7.00008 4.08301 5.69424 4.08301 4.08341Z" fill="white"/>
</svg>
